PathFileType	4	(x/y/z)	S01_M20_T03.trc
DataRate	CameraRate	NumFrames	NumMarkers	Units	OrigDataRate	OrigDataStartFrame	OrigNumFrames
240	240	10	51	mm	240	184	488
Frame#	Time	Sternum			R.Acromium			L.Acromium			Top.Head			R.ASIS			L.ASIS			R.PSIS			L.PSIS			R.Great.Tro			L.Great.Tro			R.Iliac.Crest			L.Iliac.Crest			V.Sacral			R.Thigh.Upper.Post			R.Thigh.Lower.Ant			R.Thigh.Lower.Post			R.Thigh.Upper.Ant			R.Knee.Lat			R.Knee.Med			R.Shank.Upper.Post			R.Shank.Lower.Ant			R.Shank.Lower.Post			R.Shank.Upper.Ant			R.Ankle.Lat			R.Ankle.Med			R.Heel.Upper			R.Heel.Med			R.Heel.Lat			R.Toe.Lat			R.Toe.Med			R.Toe.Tip			L.Thigh.Upper.Post			L.Thigh.Lower.Ant			L.Thigh.Lower.Post			L.Thigh.Upper.Ant			L.Knee.Lat			L.Knee.Med			L.Shank.Upper.Post			L.Shank.Lower.Ant			L.Shank.Lower.Post			L.Shank.Upper.Ant			L.Ankle.Lat			L.Ankle.Med			L.Heel.Upper			L.Heel.Med			L.Heel.Lat			L.Toe.Lat			L.Toe.Med			L.Toe.Tip			Cervical.Spine			Back			
		X1	Y1	Z1	X2	Y2	Z2	X3	Y3	Z3	X4	Y4	Z4	X5	Y5	Z5	X6	Y6	Z6	X7	Y7	Z7	X8	Y8	Z8	X9	Y9	Z9	X10	Y10	Z10	X11	Y11	Z11	X12	Y12	Z12	X13	Y13	Z13	X14	Y14	Z14	X15	Y15	Z15	X16	Y16	Z16	X17	Y17	Z17	X18	Y18	Z18	X19	Y19	Z19	X20	Y20	Z20	X21	Y21	Z21	X22	Y22	Z22	X23	Y23	Z23	X24	Y24	Z24	X25	Y25	Z25	X26	Y26	Z26	X27	Y27	Z27	X28	Y28	Z28	X29	Y29	Z29	X30	Y30	Z30	X31	Y31	Z31	X32	Y32	Z32	X33	Y33	Z33	X34	Y34	Z34	X35	Y35	Z35	X36	Y36	Z36	X37	Y37	Z37	X38	Y38	Z38	X39	Y39	Z39	X40	Y40	Z40	X41	Y41	Z41	X42	Y42	Z42	X43	Y43	Z43	X44	Y44	Z44	X45	Y45	Z45	X46	Y46	Z46	X47	Y47	Z47	X48	Y48	Z48	X49	Y49	Z49	X50	Y50	Z50	X51	Y51	Z51	

184	0.7625	-408.43	1277.7	321.49	-521.3	1506.5	523.2	-561.29	1545.9	197.77	-582.42	1842.2	385.42	-427.42	1022	463.69	-451.88	1014.6	197.58	-675.83	1056.7	392.34	-687.4	1050.4	290.28	-493.93	973.72	550.97	-565.28	956.07	131.42	-515.51	1110.8	542.88	-570.3	1098.9	136.35	-695.23	1017	342.65	-435.46	670.23	517.82	-351.45	620.39	482.35	-411.5	586.88	492.64	-372.37	705.65	508.24	-376.79	531.98	482.28	-381.78	537.93	340.9	-424.48	368.02	499.8	-362.59	288.99	452.97	-426.6	298.15	486.82	-363.79	360.09	472.85	-425.57	99.806	443.29	-392.4	109.92	350.95	-493.39	71.671	380.67	-475.85	43.666	351.85	-482.9	41.308	416.22	-293.14	36.797	479.47	-258.95	45.469	355.53	-198.06	64.797	412.16	-578.03	674.51	143.28	-494.75	608.66	111.48	-560.92	585.09	150.63	-518.88	701.03	109.88	-520.42	511.26	115.49	-458.96	491.78	253.86	-646.63	467.29	114.75	-714.98	360.25	132.07	-708.32	419.14	124.86	-618.61	408.86	121.04	-881.79	304.38	172.6	-843.98	278.47	262.28	-935.2	344.8	234.45	-946.44	322.2	269.95	-959.13	327.08	207.91	-877.75	146.15	139.52	-837.8	117.26	253.55	-804.95	74.066	191.3	-636.82	1577.1	376.69	-704.06	1264.1	370.97
185	0.76667	-403.69	1278.7	321.95	-516.5	1507.6	523.76	-556.69	1547	198.36	-577.38	1843.3	385.98	-422.42	1022.8	464.03	-447.14	1015.9	197.92	-670.92	1057.8	392.83	-682.46	1051.4	290.77	-489.18	974.5	551.31	-560.17	957.28	131.86	-510.27	1111.9	543.07	-565.76	1100.1	136.9	-690.37	1018	343.15	-432.48	670.59	518.13	-348.79	620.23	482.63	-409.07	587.11	492.95	-369.18	705.65	508.49	-374.8	531.88	482.55	-379.74	537.87	341.19	-423.31	368.11	500	-361.73	288.86	453.15	-425.72	298.26	486.99	-362.64	359.95	473.07	-425.46	99.855	443.31	-392.28	109.99	350.99	-493.35	71.757	380.7	-475.83	43.743	351.88	-482.88	41.353	416.24	-293.09	36.724	479.49	-258.93	45.375	355.53	-198.01	64.615	412.17	-569.49	675.25	143.46	-485.72	610.25	111.58	-551.63	586.08	150.85	-510.84	702.35	109.97	-510.5	512.82	115.69	-448.89	493.72	254.2	-636.36	468.73	115.16	-705.51	361.37	132.2	-697.83	420.29	125.1	-608.11	410.39	121.22	-871.01	304.95	172.74	-832.98	279.25	262.38	-924.92	344.68	234.59	-935.9	321.81	269.92	-948.64	326.81	208.01	-865.34	146.94	139.25	-825.17	118.19	253.23	-791.86	75.553	190.89	-632.05	1578.2	377.29	-699.2	1265.1	371.73
186	0.77083	-398.96	1279.8	322.41	-511.73	1508.8	524.31	-552.1	1548.1	198.94	-572.36	1844.4	386.48	-417.47	1023.6	464.38	-442.38	1017.2	198.26	-666.03	1058.8	393.26	-677.52	1052.5	291.21	-484.48	975.28	551.65	-555.04	958.5	132.27	-505.09	1113	543.25	-561.14	1101.3	137.43	-685.5	1019.1	343.57	-429.56	670.96	518.44	-346.2	620.06	482.91	-406.7	587.35	493.26	-366.04	705.64	508.74	-372.89	531.8	482.83	-377.75	537.82	341.49	-422.19	368.21	500.2	-360.92	288.73	453.34	-424.88	298.37	487.16	-361.54	359.82	473.3	-425.35	99.901	443.34	-392.17	110.06	351.04	-493.3	71.845	380.75	-475.81	43.821	351.91	-482.86	41.399	416.27	-293.04	36.651	479.52	-258.91	45.302	355.55	-197.97	64.451	412.19	-561.02	676.04	143.58	-476.71	611.89	111.68	-542.39	587.13	151	-502.81	703.72	110.05	-500.61	514.42	115.9	-438.89	495.75	254.54	-626.12	470.09	115.55	-694.41	362.5	132.4	-687.33	421.31	125.33	-597.6	411.86	121.41	-860.15	305.26	172.85	-821.88	279.83	262.49	-914.58	344.28	234.68	-925.29	321.16	269.83	-938.06	326.24	208.06	-852.72	147.48	139.04	-812.34	118.95	253	-778.52	76.87	190.6	-627.3	1579.2	377.88	-694.35	1266.2	372.46
187	0.775	-394.24	1280.9	322.88	-506.98	1510	524.84	-547.52	1549.2	199.5	-567.37	1845.5	386.94	-412.55	1024.5	464.72	-437.6	1018.5	198.63	-661.16	1059.8	393.65	-672.58	1053.5	291.59	-479.81	976.06	551.98	-549.89	959.74	132.65	-499.97	1114.1	543.41	-556.46	1102.6	137.94	-680.64	1020.1	343.94	-426.68	671.33	518.75	-343.66	619.88	483.19	-404.4	587.6	493.57	-362.95	705.62	508.99	-371.04	531.72	483.11	-375.8	537.78	341.78	-421.12	368.31	500.41	-360.15	288.61	453.54	-424.09	298.49	487.33	-360.5	359.7	473.54	-425.26	99.946	443.37	-392.06	110.14	351.1	-493.26	71.934	380.79	-475.8	43.899	351.94	-482.84	41.444	416.29	-292.99	36.58	479.54	-258.89	45.248	355.57	-197.93	64.304	412.23	-552.62	676.88	143.65	-467.73	613.57	111.79	-533.18	588.22	151.09	-494.81	705.13	110.1	-490.77	516.04	116.13	-428.94	497.84	254.89	-615.9	471.37	115.92	-681.92	363.65	132.67	-676.82	422.22	125.54	-587.07	413.29	121.6	-849.19	305.31	172.96	-810.7	280.22	262.6	-904.16	343.61	234.74	-914.6	320.23	269.7	-927.41	325.38	208.08	-839.91	147.77	138.9	-799.31	119.54	252.85	-764.95	78.018	190.4	-622.58	1580.2	378.46	-689.52	1267.2	373.18
188	0.77917	-389.54	1282	323.36	-502.25	1511.2	525.36	-542.96	1550.2	200.06	-562.4	1846.6	387.36	-407.68	1025.4	465.06	-432.8	1019.8	199.01	-656.31	1060.8	393.99	-667.62	1054.6	291.91	-475.19	976.85	552.31	-544.72	960.98	132.99	-494.91	1115.2	543.56	-551.72	1103.9	138.42	-675.77	1021.2	344.24	-423.85	671.69	519.07	-341.17	619.71	483.48	-402.16	587.85	493.88	-359.91	705.6	509.24	-369.25	531.65	483.39	-373.91	537.74	342.06	-420.11	368.41	500.61	-359.42	288.5	453.75	-423.33	298.61	487.5	-359.5	359.58	473.79	-425.17	99.99	443.4	-391.95	110.22	351.17	-493.21	72.024	380.83	-475.78	43.977	351.98	-482.82	41.49	416.32	-292.95	36.51	479.58	-258.87	45.209	355.6	-197.89	64.173	412.27	-544.29	677.78	143.66	-458.8	615.3	111.9	-524.03	589.36	151.12	-486.82	706.58	110.14	-480.96	517.68	116.36	-419.06	499.99	255.25	-605.71	472.56	116.26	-668.3	364.78	133	-666.31	423	125.73	-576.53	414.65	121.8	-838.14	305.11	173.06	-799.41	280.41	262.73	-893.68	342.67	234.78	-903.83	319.03	269.55	-916.67	324.22	208.08	-826.92	147.82	138.81	-786.08	119.96	252.76	-751.17	78.999	190.3	-617.88	1581.2	379.02	-684.7	1268.3	373.86
189	0.78333	-384.86	1283	323.84	-497.54	1512.3	525.86	-538.41	1551.3	200.61	-557.46	1847.6	387.73	-402.85	1026.3	465.41	-427.98	1021.1	199.41	-651.48	1061.8	394.28	-662.66	1055.7	292.19	-470.61	977.62	552.62	-539.54	962.24	133.31	-489.93	1116.4	543.73	-546.91	1105.2	138.89	-670.89	1022.2	344.48	-421.08	672.06	519.38	-338.75	619.52	483.77	-399.98	588.1	494.18	-356.92	705.57	509.49	-367.53	531.59	483.68	-372.06	537.71	342.34	-419.14	368.52	500.81	-358.72	288.4	453.97	-422.63	298.73	487.68	-358.55	359.48	474.04	-425.08	100.03	443.44	-391.84	110.31	351.24	-493.17	72.113	380.88	-475.77	44.054	352.01	-482.8	41.537	416.35	-292.91	36.442	479.61	-258.86	45.186	355.63	-197.86	64.057	412.32	-536.04	678.72	143.63	-449.9	617.08	112.02	-514.91	590.54	151.09	-478.84	708.07	110.16	-471.2	519.34	116.59	-409.25	502.21	255.6	-595.56	473.65	116.57	-653.81	365.88	133.37	-655.8	423.66	125.91	-565.98	415.94	122.01	-827	304.66	173.15	-788.04	280.41	262.86	-883.12	341.45	234.79	-892.97	317.56	269.37	-905.84	322.78	208.07	-813.75	147.64	138.77	-772.67	120.22	252.73	-737.17	79.819	190.26	-613.19	1582.2	379.56	-679.89	1269.3	374.51
190	0.7875	-380.18	1284.1	324.32	-492.84	1513.5	526.35	-533.88	1552.4	201.14	-552.55	1848.7	388.06	-398.08	1027.3	465.75	-423.14	1022.4	199.84	-646.66	1062.8	394.53	-657.69	1056.8	292.42	-466.08	978.39	552.94	-534.33	963.51	133.6	-485.01	1117.5	543.9	-542.03	1106.6	139.33	-666.01	1023.3	344.67	-418.35	672.43	519.69	-336.38	619.34	484.05	-397.86	588.35	494.48	-353.98	705.52	509.73	-365.88	531.52	483.96	-370.26	537.68	342.61	-418.22	368.62	501.01	-358.06	288.3	454.18	-421.96	298.86	487.84	-357.64	359.38	474.29	-425	100.07	443.48	-391.74	110.4	351.31	-493.13	72.2	380.92	-475.76	44.131	352.04	-482.78	41.583	416.37	-292.88	36.377	479.65	-258.84	45.176	355.67	-197.83	63.954	412.37	-527.85	679.7	143.54	-441.06	618.89	112.15	-505.85	591.76	151.02	-470.9	709.59	110.18	-461.48	521.02	116.83	-399.5	504.48	255.97	-585.45	474.66	116.85	-638.7	366.93	133.78	-645.29	424.19	126.07	-555.43	417.17	122.23	-815.77	303.97	173.23	-776.56	280.2	263	-872.47	339.97	234.8	-882.02	315.83	269.19	-894.92	321.06	208.05	-800.4	147.24	138.77	-759.07	120.31	252.75	-722.97	80.485	190.28	-608.52	1583.3	380.09	-675.09	1270.3	375.14
191	0.79167	-375.51	1285.2	324.81	-488.16	1514.7	526.84	-529.35	1553.4	201.67	-547.66	1849.8	388.36	-393.34	1028.2	466.11	-418.28	1023.7	200.29	-641.86	1063.8	394.75	-652.72	1057.9	292.61	-461.58	979.14	553.25	-529.11	964.79	133.86	-480.16	1118.6	544.1	-537.1	1107.9	139.76	-661.13	1024.3	344.81	-415.68	672.79	519.99	-334.07	619.14	484.33	-395.8	588.6	494.78	-351.09	705.47	509.96	-364.28	531.47	484.24	-368.51	537.66	342.88	-417.34	368.73	501.2	-357.43	288.21	454.4	-421.32	298.98	488.01	-356.78	359.29	474.54	-424.93	100.11	443.52	-391.64	110.48	351.39	-493.09	72.285	380.96	-475.75	44.207	352.07	-482.76	41.631	416.4	-292.85	36.315	479.69	-258.83	45.176	355.7	-197.8	63.863	412.43	-519.74	680.73	143.42	-432.26	620.74	112.28	-496.84	593.02	150.9	-462.98	711.14	110.18	-451.81	522.72	117.08	-389.82	506.8	256.33	-575.37	475.57	117.11	-623.22	367.92	134.22	-634.78	424.6	126.21	-544.89	418.34	122.45	-804.45	303.05	173.32	-764.99	279.8	263.14	-861.74	338.22	234.79	-870.97	313.84	269.01	-883.91	319.06	208.02	-786.88	146.64	138.81	-745.28	120.24	252.81	-708.57	81.005	190.35	-603.86	1584.2	380.6	-670.3	1271.4	375.74
192	0.79583	-370.84	1286.4	325.3	-483.5	1515.9	527.3	-524.82	1554.5	202.17	-542.79	1850.9	388.61	-388.65	1029.1	466.47	-413.41	1025.1	200.76	-637.07	1064.8	394.93	-647.73	1059	292.76	-457.12	979.88	553.55	-523.87	966.08	134.08	-475.39	1119.7	544.32	-532.11	1109.3	140.16	-656.24	1025.3	344.91	-413.05	673.16	520.29	-331.82	618.95	484.6	-393.79	588.84	495.06	-348.25	705.42	510.19	-362.73	531.41	484.51	-366.82	537.65	343.13	-416.51	368.84	501.39	-356.84	288.13	454.61	-420.72	299.11	488.16	-355.96	359.21	474.79	-424.86	100.15	443.56	-391.54	110.57	351.47	-493.06	72.368	381	-475.74	44.281	352.1	-482.74	41.679	416.42	-292.82	36.257	479.74	-258.81	45.186	355.74	-197.77	63.784	412.49	-511.7	681.8	143.26	-423.52	622.63	112.41	-487.88	594.32	150.74	-455.1	712.72	110.17	-442.19	524.43	117.33	-380.22	509.16	256.69	-565.34	476.38	117.34	-607.63	368.81	134.66	-624.27	424.89	126.33	-534.34	419.43	122.67	-793.03	301.91	173.42	-753.32	279.21	263.3	-850.92	336.21	234.79	-859.82	311.59	268.84	-872.8	316.79	208	-773.19	145.84	138.87	-731.31	120.02	252.9	-693.97	81.388	190.45	-599.21	1585.2	381.1	-665.52	1272.4	376.32
193	0.8	-366.17	1287.5	325.79	-478.84	1517.1	527.76	-520.31	1555.5	202.66	-537.96	1851.9	388.84	-384.01	1030	466.84	-408.53	1026.4	201.25	-632.3	1065.7	395.07	-642.75	1060	292.87	-452.7	980.58	553.86	-518.61	967.37	134.28	-470.67	1120.7	544.57	-527.07	1110.6	140.54	-651.34	1026.3	344.96	-410.46	673.52	520.57	-329.62	618.74	484.87	-391.84	589.09	495.33	-345.45	705.35	510.4	-361.25	531.36	484.77	-365.18	537.63	343.37	-415.71	368.94	501.57	-356.27	288.06	454.82	-420.16	299.23	488.31	-355.17	359.13	475.03	-424.8	100.19	443.59	-391.44	110.66	351.54	-493.02	72.446	381.03	-475.73	44.354	352.13	-482.72	41.727	416.44	-292.8	36.202	479.78	-258.8	45.203	355.77	-197.75	63.715	412.56	-503.73	682.91	143.07	-414.83	624.55	112.55	-478.99	595.65	150.56	-447.26	714.34	110.16	-432.62	526.15	117.58	-370.7	511.56	257.05	-555.35	477.09	117.54	-592.17	369.6	135.12	-613.77	425.06	126.44	-523.81	420.46	122.91	-781.53	300.54	173.52	-741.55	278.43	263.46	-840.01	333.94	234.79	-848.56	309.1	268.68	-861.59	314.25	207.99	-759.33	144.86	138.96	-717.15	119.65	253.01	-679.18	81.644	190.57	-594.57	1586.2	381.59	-660.75	1273.4	376.87
